<svg xmlns="http://www.w3.org/2000/svg" width="32" height="32" viewBox="0 0 32 32"><path fill="#FFF" d="M16.03 0C7.19 0 0 7.18 0 16c0 8.822 7.19 16 16.03 16S32 24.822 32 16c0-8.82-7.13-16-15.97-16zM1.617 16c0-2.085.45-4.066 1.25-5.855L9.74 28.947C4.934 26.614 1.618 21.694 1.618 16zM16.03 30.386c-1.414 0-2.78-.208-4.07-.587l4.323-12.542 4.368 12.114c.03.07.065.136.105.198-1.497.527-3.046.817-4.725.817zm1.925-21.132c.868-.045 1.65-.136 1.65-.136.775-.093.684-1.233-.093-1.187 0 0-2.273.183-3.78.183-1.416 0-3.794-.183-3.794-.183-.78-.047-.87 1.14-.094 1.186 0 0 .735.09 1.512.135l2.246 6.142-3.155 9.44L7.2 9.255c.867-.045 1.65-.136 1.65-.136.774-.093.684-1.233-.093-1.187 0 0-2.333.183-3.84.183-.272 0-.59-.007-.93-.02 2.578-3.903 7.008-6.482 12.043-6.482 3.752 0 7.108 1.433 9.672 3.777-.062-.002-.123-.01-.187-.01-1.415 0-2.42 1.23-2.42 2.554 0 1.186.685 2.188 1.415 3.374.55.958 1.188 2.188 1.188 3.967 0 1.23-.475 2.66-1.096 4.65l-1.44 4.794-5.207-15.465zm5.26 19.18l4.402-12.704c.82-2.052 1.096-3.693 1.096-5.15 0-.53-.036-1.022-.097-1.48 1.125 2.048 1.765 4.4 1.765 6.9 0 5.307-2.88 9.94-7.165 12.434z"/></svg>